<?xml version="1.0" encoding="utf-8"?>
<!-- Generator: Adobe Illustrator 16.0.0, SVG Export Plug-In . SVG Version: 6.00 Build 0)  -->
<!DOCTYPE svg PUBLIC "-//W3C//DTD SVG 1.1//EN" "http://www.w3.org/Graphics/SVG/1.1/DTD/svg11.dtd">
<svg version="1.1" id="Layer_1" xmlns="http://www.w3.org/2000/svg" xmlns:xlink="http://www.w3.org/1999/xlink" x="0px" y="0px"
	 width="360.808px" height="336.071px" viewBox="0 0 360.808 336.071" enable-background="new 0 0 360.808 336.071"
	 xml:space="preserve">
<g>
	<path fill-rule="evenodd" clip-rule="evenodd" fill="#FFFFFF" d="M360.381,178.558c-0.441,6.748-1.238,13.471-2.472,20.126
		c-6.333,34.174-21.998,63.467-46.576,87.988c-4.781,4.771-12.068,4.67-16.786,0.125c-4.716-4.545-4.933-12.09-0.094-17.039
		c12.488-12.771,22.634-27.092,29.963-43.428c23.439-52.248,12.959-114.576-26.354-156.201c-1.207-1.277-2.463-2.51-3.644-3.811
		c-4.673-5.145-4.599-12.467,0.15-17.058c4.829-4.667,12.038-4.576,17.031,0.363c9.876,9.769,18.413,20.616,25.524,32.548
		c15.109,25.353,24.018,55.753,23.673,85.358C360.756,171.21,360.62,174.888,360.381,178.558z"/>
	<path fill-rule="evenodd" clip-rule="evenodd" fill="#FFFFFF" d="M312.783,170.386c-1.175,31.926-12.352,58.947-34.218,81.465
		c-2.94,3.027-6.31,4.869-10.598,4.424c-4.851-0.504-8.346-3.057-10.038-7.643c-1.729-4.682-0.897-9.057,2.635-12.658
		c7.354-7.496,13.527-15.809,18.246-25.215c17.89-35.662,11.256-79.695-16.271-108.595c-2.107-2.213-4.112-4.953-4.993-7.811
		c-1.613-5.227,1.074-10.529,5.739-13.107c4.767-2.633,10.376-1.832,14.509,2.275c11.009,10.939,19.572,23.557,25.61,37.863
		C310.104,137.256,312.999,153.852,312.783,170.386z"/>
	<g id="XMLID_1_">
		<g>
			<path fill="#FFFFFF" d="M216.499,14.232c0.011,102.52-0.01,205.05,0.051,307.58c0,5.15-1.131,9.51-5.711,12.39
				c-4.8,3.011-9.819,2.391-15.189-1.899c-20.4-16.311-40.79-32.65-61.18-48.96c-17.29-13.83-34.56-27.69-51.93-41.42
				c-1.41-1.12-3.54-1.841-5.34-1.86c-15.7-0.14-31.42-0.5-47.1,0.04c-21.08,0.729-30-13.73-30.07-32.97
				c-0.07-21.21-0.03-42.45,0.27-63.66c0.12-7.83-0.65-18.28,1.41-27.22c1.17-5.04,3.23-9.59,6.87-12.92
				c8.06-7.36,18.98-7.28,29.14-7.25c13.04,0.03,26.09,0,39.13-0.12c2.02-0.02,4.41-0.81,5.98-2.06
				c37.48-29.85,74.89-59.78,112.271-89.75c3.84-3.08,7.779-5.2,12.87-3.61c4.949,1.55,8.21,5.67,8.489,10.88
				C216.51,12.352,216.499,13.292,216.499,14.232z"/>
		</g>
		<g>
		</g>
	</g>
</g>
</svg>
