<?xml version="1.0" encoding="utf-8"?>
<!-- Generator: Adobe Illustrator 24.3.0, SVG Export Plug-In . SVG Version: 6.00 Build 0)  -->
<svg version="1.1" xmlns="http://www.w3.org/2000/svg" xmlns:xlink="http://www.w3.org/1999/xlink" x="0px" y="0px"
	 viewBox="0 0 447.37 447.37" style="enable-background:new 0 0 447.37 447.37;" xml:space="preserve">
<style type="text/css">
	.st0{fill:#313131;}
	.st1{fill:#343434;}
	.st2{fill:#373737;}
	.st3{fill:#393939;}
	.st4{fill:#333333;}
	.st5{fill:#424242;}
	.st6{fill:#383838;}
</style>
<g id="Layer_2">
	<rect y="0" class="st0" width="447.37" height="447.37"/>
</g>
<g id="Layer_1">
	<g>
		<path class="st1" d="M115.76,427.55c-8.08-0.67-15.22-5.8-20.82-12.34c-4.38-5.12-7.29-11.46-8.15-18.15
			c-1.37-10.61,2.56-21.09,9.8-28.83c21.21-22.69,43.82-44.08,65.82-66.04c1.57-1.03,2.78-0.24,3.89,0.81
			c4.25,4.01,8.37,8.15,12.4,12.39c0.95,1,1.62,2.12,1.15,3.59c-0.23,2.48-2.03,3.94-3.62,5.54c-19.13,19.2-38.34,38.32-57.48,57.52
			c-1.78,1.79-3.59,3.56-4.74,5.86c-1.98,3.94-1.35,8.35,1.64,11.44c2.9,2.99,6.98,3.76,11,2.07c5.05-2.12,5.06-2.14,8.89,1.63
			c3.78,3.73,7.62,7.42,11.24,11.31c0.91,0.98,2.02,2.2,1.94,3.61c-0.08,1.58-1.29,3.58-2.67,4.14
			C133.63,427.17,126.17,428.41,115.76,427.55z"/>
		<path class="st1" d="M145.18,284.97c-8.31,8.4-16.6,16.83-24.94,25.2c-12.94,12.99-25.84,26.01-38.9,38.88
			c-14.74,14.53-35.03,15.45-50.29,2.41c-8.17-6.98-11.97-17.64-11.8-28.22c0.07-4.42,4.73-31,12.87-23.47
			c4.87,4.51,9.53,9.25,14.11,14.05c1.61,1.69,1.49,3.38,0.48,5.44c-2.71,5.52-1.85,10.13,2.2,13.19c4.19,3.16,9.2,2.78,13.77-1.36
			c4.62-4.19,8.92-8.73,13.33-13.14c15.48-15.5,30.98-30.99,46.48-46.47c1.66-1.66,3.14-3.69,5.8-3.92c1.61-0.54,2.8,0.24,3.88,1.28
			c4.07,3.91,8.08,7.89,11.97,11.98C145.26,281.99,146.31,283.23,145.18,284.97z"/>
		<path class="st1" d="M183.61,427.49c-4.45-0.77-8.76-2.39-12.67-4.88c-7.3-4.67-12.79-12.14-15.1-20.49
			c-3.64-13.16,0.75-26.99,10.44-36.41c10.11-9.82,19.98-19.9,29.96-29.86c1.59-1.12,2.74-0.13,3.8,0.88c4,3.81,7.9,7.71,11.73,11.7
			c1.16,1.21,1.94,2.51,1.17,4.24c-9.89,9.99-19.77,19.99-29.69,29.95c-2.19,2.2-4.16,4.51-4.63,7.69
			c-0.71,4.87,0.71,8.99,4.79,11.87c4.05,2.86,8.51,3.26,12.7,0.6c2.33-1.48,3.53-1.11,5.26,0.73c3.9,4.16,7.96,8.18,12.1,12.11
			c1.75,1.66,1.96,2.62-0.11,4.27C205.05,426.55,193.97,429.29,183.61,427.49z"/>
		<path class="st1" d="M111.51,251.08c-10.3,10.33-20.39,20.87-30.94,30.93c-9.33,8.91-22.55,13.21-35.17,9.63
			c-13.05-3.7-23.22-15.19-25.7-28.47c-1.24-6.65-0.56-13.65,1.9-19.95c1.43-3.67,5.07-13.02,10.35-8.92
			c1.12,0.87,2.11,1.97,3.12,2.98c3.1,3.1,6.15,6.23,9.31,9.27c1.3,1.25,1.7,2.12,0.6,3.98c-3.51,5.89-2.31,12.2,2.67,15.98
			c4.88,3.71,11.37,3.16,16.24-1.61c10.32-10.12,20.55-20.34,30.82-30.51c1.73-0.75,3.03,0.02,4.24,1.18
			c3.98,3.81,7.87,7.72,11.68,11.71C111.63,248.35,112.63,249.49,111.51,251.08z"/>
		<path class="st2" d="M111.51,251.08c-5.36-5.8-10.83-11.49-16.8-16.68c10.82-10.91,21.65-21.82,32.47-32.74
			c1.49-1.5,2.93-3.06,4.39-4.59c2-1.14,2.91,0.29,3.78,1.66c7.54,11.83,18.35,17.26,32.28,16.16c10.72-0.85,18.88-6.32,25.09-14.92
			c0.84-1.17,1.36-2.6,2.76-3.3c2.37-0.61,4.04,0.53,5.63,2.11c5.66,5.62,11.26,11.28,16.91,16.9c5.1,5.07,5.45,5.09,10.47,0.08
			c49.12-49.13,98.26-98.25,147.38-147.39c3.47-3.48,6.82-7.1,10.5-10.35c0.95-0.84,1.86-1.79,3.01-2.36
			c0.99-0.5,3.04-1.09,3.79,0.01c0.32,0.48,0.06,1.22,0.15,1.81c0.74,5.03,1.55,10.2,2.43,15.1c0.7,3.92,1.01,7.91,1.13,11.91
			c0.37,12.32-1.72,24.38-4.49,36.25c-9.49,40.65-27.73,76.98-54.64,108.93c-1.15,1.37-2.27,2.63-4.28,2.34
			c-6.91,7.09-13.8,14.19-20.72,21.25c-4.53,4.62-9.11,9.2-13.66,13.8c-2.69,1.84-3.52-0.67-4.55-2.13
			c-4.4-6.22-9.8-11.09-17.12-13.66c-7.13-2.5-14.24-2.75-21.47-0.47c-1.99,0.63-3.89,1.77-6.11,1.48
			c-7.83-6.61-14.62-14.29-21.97-21.39c-4.22-4.08-4.9-4.13-9.05,0c-19.59,19.53-39.13,39.13-58.72,58.66
			c-1.57,1.56-2.87,3.58-5.39,3.85c-0.92,0.1-3.18-3.06-3.85-3.72c-5.28-5.26-10.79-10.5-16.14-15.77
			c-5.36-5.27-10.36-10.87-15.65-16.2C116.67,255.38,114.19,253.1,111.51,251.08z"/>
		<path class="st3" d="M393.15,55.69c0.02,0.03-1.33,0.88-1.45,0.97c-1.19,0.93-1.91,1.53-2.75,2.38c-0.83,0.74-1.65,1.48-2.48,2.22
			c-1.09,0.98-2.17,1.97-3.25,2.96c-1.09,1-2.18,2.01-3.26,3.02c-1.09,1.02-2.17,2.04-3.24,3.06c-0.37,0.35-0.74,0.71-1.11,1.06
			c-5.81,5.59-11.4,11.4-17.1,17.1c-5.7,5.7-11.4,11.4-17.1,17.1c-5.7,5.7-11.4,11.4-17.1,17.1c-5.7,5.7-11.4,11.4-17.1,17.1
			c-5.7,5.7-11.4,11.4-17.1,17.1c-5.7,5.7-11.4,11.4-17.1,17.1s-11.4,11.4-17.1,17.1c-5.7,5.7-11.4,11.4-17.1,17.1
			c-3.73,3.73-7.47,7.47-11.2,11.2c-4.33,4.33-4.34,4.33-8.62,0.05c-6.21-6.2-12.41-12.42-18.62-18.61
			c-1.21-1.21-2.3-2.62-4.11-3.02c-1.74-1.31-0.87-2.95-0.35-4.35c5.93-15.88-0.67-32.41-13.88-40.81c-1.46-0.93-3.5-1.92-1.72-4.29
			c11.68-11.47,23.36-22.94,35.03-34.41c-0.12-2.58,2.05-3.62,3.58-4.93c11.83-10.15,24.71-18.79,38.21-26.56
			c25.86-14.88,53.53-24.58,83-29.05c7.79-1.18,15.62-2.27,23.51-2.38c3.44-0.05,6.82,0.18,10.24,0.47c2.87,0.25,5.79,1.8,8.68,1.38
			c0.39-0.06,0.78-0.15,1.18-0.14c0.28,0.01,0.56,0.07,0.83,0.12c1.52,0.3,3.07,0.35,4.59,0.68c0.45,0.1,0.88,0.29,1.29,0.49
			c0.43,0.21,0.85,0.44,1.26,0.69c0.39,0.24,0.75,0.47,1.12,0.74c0.03,0.02,0.08,0.07,0.1,0.1
			C392.99,55.59,393.12,55.62,393.15,55.69z"/>
		<path class="st1" d="M393.15,55.69c-4.83-0.95-9.67-1.9-14.58-2.36c-4.88-0.46-9.85-0.29-14.74-0.13c-0.1,0-0.2,0.01-0.3,0.01
			c-3.58,0.12-7.16,0.34-10.73,0.65c-3.54,0.31-7.08,0.71-10.6,1.19c-3.51,0.49-7,1.06-10.48,1.72c-3.47,0.66-6.92,1.41-10.36,2.23
			c-3.43,0.83-6.85,1.74-10.24,2.73c-3.4,0.99-6.77,2.06-10.12,3.21c-3.36,1.15-6.7,2.38-10.01,3.68c-3.33,1.31-6.63,2.68-9.9,4.13
			c-3.3,1.45-6.56,2.98-9.8,4.56c-2.26,1.11-4.51,2.25-6.75,3.42c-16.29,8.52-31.49,18.78-45.48,30.78c-1.1,0.94-2.4,1.64-3.61,2.46
			c-7.32-7.33-14.87-14.45-21.9-22.05c-11.92-12.9-14.5-31.67-6.99-47.54c7.33-15.5,23.69-25.57,40.99-24.38
			c11.53,0.79,22.68,4.24,33.97,6.62c38.18,8.03,76.64,15.77,114.81,23.9C378.91,51.07,390.93,52.82,393.15,55.69z"/>
		<path class="st1" d="M333.45,231.83c10.69-13.07,20.83-26.52,29.17-41.27c16.46-29.12,27.79-59.92,31.64-93.32
			c0.5-4.38,0.38-8.72,0.36-13.12c-0.02-4.54,0.1-9.09-0.26-13.61c-0.15-1.88-0.16-3.77-0.33-5.65c-0.14-1.58-0.3-3.15-0.47-4.73
			c-0.08-0.74-0.19-1.47-0.27-2.21c-0.08-0.74-0.12-1.43-0.12-2.23c0.06,0.08,0.09,0.17,0.13,0.25c0.09,0.2,0.17,0.4,0.24,0.61
			c0.04,0.11,0.07,0.23,0.1,0.34c0.03,0.1,0.09,0.23,0.09,0.33c0.17,0.61,0.33,1.23,0.47,1.85c0.59,2.57,0.86,5.2,1.43,7.77
			c0.88,4.12,1.76,8.24,2.63,12.36c1.86,8.73,3.71,17.45,5.56,26.18c1.79,8.44,3.58,16.89,5.38,25.33
			c0.79,3.73,1.59,7.46,2.38,11.19c4.96,23.25,9.85,46.52,14.81,69.78c4.16,19.51-3.87,38.01-20.75,47.7
			c-16.24,9.32-37,6.71-51.26-6.72C347.2,245.92,340.41,238.79,333.45,231.83z"/>
		<path class="st4" d="M154.67,293.44c0.36-1.66,1.59-2.72,2.71-3.85c20.85-20.85,41.73-41.66,62.5-62.6
			c2.53-2.55,4.15-2.82,6.75-0.08c6.59,6.93,13.47,13.58,20.23,20.34c1.12,1.12,2.37,2.17,2.75,3.82c0.37,2.02-1.19,2.78-2.46,3.69
			c-6.23,4.47-10.65,10.29-13.18,17.53c-5,14.35,0.81,30.94,13.62,39.13c1.56,0.99,4.01,1.56,2.75,4.38
			c-11.28,11.23-22.55,22.47-33.84,33.69c-0.44,0.43-2.8,3.06-3.47,2.85c-0.14-0.04-0.24-0.15-0.34-0.25
			c-3.13-3.18-6.26-6.36-9.4-9.55c-2.95-2.99-6.12-5.75-8.9-8.9c-1.9-2.16-3.91-4.21-5.95-6.23c-3.32-3.28-6.75-6.43-10.07-9.7
			c-6.38-6.29-12.58-12.81-18.85-19.19C157.87,296.87,155.99,295.42,154.67,293.44z"/>
		<path class="st5" d="M250.48,315.52c-0.34-0.16-0.67-0.34-1-0.52c-1.88-1.06-3.59-2.39-5.29-3.71c-1.63-1.27-3.29-2.48-4.69-4.01
			c-15.1-16.49-12.05-44.29,10.1-56.19c7.97-4.28,18.14-4.88,26.7-2.29c4.82,1.46,9.08,4.15,12.77,7.54
			c8.71,8.02,13.9,18.22,12.53,30.37c-0.59,5.24-2.42,10.31-5.17,14.8c-5.33,8.69-14.64,15.76-24.98,16.91
			c-3.81,0.42-7.66,0.21-11.45-0.39C256.7,317.49,253.49,316.97,250.48,315.52z"/>
		<path class="st5" d="M179.72,149.37c8.14,3.87,14.88,10.7,18.19,19.69c3.23,8.77,3.28,20.46-1.63,28.71
			c-9.89,16.61-26.03,23.16-43.58,17.51c-4.13-1.33-7.98-3.45-11.3-6.25c-2.89-2.43-5.11-5.46-7.37-8.45
			c-3.69-4.88-4.8-10.54-5.3-16.5c-0.38-4.53,0.07-9.11,1.53-13.43c3.14-9.27,9.7-17.22,18.59-21.47
			C158.88,144.38,170.25,144.87,179.72,149.37z"/>
		<path class="st6" d="M277.67,283.05c0.01,6.71-5.26,12-11.87,11.91c-6.44-0.08-11.67-5.27-11.79-11.69
			c-0.12-6.58,5.14-11.99,11.77-12.07C272.43,271.12,277.66,276.33,277.67,283.05z"/>
		<path class="st6" d="M164.21,169.7c6.74-0.04,11.98,5.13,11.96,11.79c-0.02,6.63-5.37,11.9-11.99,11.81
			c-6.48-0.09-11.69-5.23-11.82-11.65C152.24,175.07,157.53,169.74,164.21,169.7z"/>
	</g>
</g>
</svg>
