<?xml version="1.0" encoding="utf-8"?>
<!-- Generator: Adobe Illustrator 16.0.0, SVG Export Plug-In . SVG Version: 6.00 Build 0)  -->
<!DOCTYPE svg PUBLIC "-//W3C//DTD SVG 1.1//EN" "http://www.w3.org/Graphics/SVG/1.1/DTD/svg11.dtd">
<svg version="1.1" id="Layer_1" xmlns="http://www.w3.org/2000/svg" xmlns:xlink="http://www.w3.org/1999/xlink" x="0px" y="0px"
	 width="1277.267px" height="1633.709px" viewBox="0 0 1277.267 1633.709" enable-background="new 0 0 1277.267 1633.709"
	 xml:space="preserve">
<g>
	<g>
		<g>
			<defs>
				<path id="SVGID_1_" d="M625.288,505.286c0,66-54,120-120,120H120c-66,0-120-54-120-120V120C0,54,54,0,120,0h385.288
					c66,0,120,54,120,120V505.286z M1277.267,120c0-66-54-120-120-120H771.979c-66,0-120,54-120,120v385.286c0,66,54,120,120,120
					h385.287c66,0,120-54,120-120V120z M625.288,771.979c0-66-54-120-120-120H120c-66,0-120,54-120,120v385.289c0,66,54,120,120,120
					h385.288c66,0,120-54,120-120V771.979z M1277.267,771.98c0-66-54-120-120-120H771.979c-66,0-120,54-120,120v385.287
					c0,66,54,120,120,120h385.287c66,0,120-54,120-120V771.98z"/>
			</defs>
			<clipPath id="SVGID_2_">
				<use xlink:href="#SVGID_1_"  overflow="visible"/>
			</clipPath>
		</g>
		<g>
			<defs>
				<path id="SVGID_3_" d="M625.288,505.286c0,66-54,120-120,120H120c-66,0-120-54-120-120V120C0,54,54,0,120,0h385.288
					c66,0,120,54,120,120V505.286z M1277.267,120c0-66-54-120-120-120H771.979c-66,0-120,54-120,120v385.286c0,66,54,120,120,120
					h385.287c66,0,120-54,120-120V120z M625.288,771.979c0-66-54-120-120-120H120c-66,0-120,54-120,120v385.289c0,66,54,120,120,120
					h385.288c66,0,120-54,120-120V771.979z M1277.267,771.98c0-66-54-120-120-120H771.979c-66,0-120,54-120,120v385.287
					c0,66,54,120,120,120h385.287c66,0,120-54,120-120V771.98z"/>
			</defs>
			<clipPath id="SVGID_4_">
				<use xlink:href="#SVGID_3_"  overflow="visible"/>
			</clipPath>
			<g clip-path="url(#SVGID_4_)">
				<g>
					<g>
						<path fill="#373737" d="M625.288,505.368c0,66-54,120-120,120H120c-66,0-120-54-120-120V120.082c0-66,54-120,120-120h385.288
							c66,0,120,54,120,120V505.368z"/>
					</g>
					<g>
						<path fill="#313131" d="M1277.267,1157.35c0,66-54,120-120,120H771.979c-66,0-120-54-120-120V772.062c0-66,54-120,120-120
							h385.287c66,0,120,54,120,120V1157.35z"/>
					</g>
					<g>
						<g>
							<path fill="#434343" d="M215.678,110.916c-55.449,26.504-96.403,76.097-115.968,133.95
								c-9.117,26.958-11.91,55.487-9.531,83.783c2.393,28.334,6.98,55.562,19.197,80.384c3.826,7.773,8.393,15.314,13.884,22.577
								c14.098,18.638,27.976,37.548,45.978,52.735c20.704,17.473,44.727,30.679,70.501,38.979
								c109.5,35.242,210.158-5.66,271.874-109.268c1.508-2.531,2.921-5.13,4.28-7.762c26.263-50.844,25.045-119.332,5.901-171.337
								c-20.605-55.981-62.605-98.589-113.326-122.751c-0.048-0.023-0.093-0.048-0.141-0.07
								C349.238,84.031,278.34,80.955,215.678,110.916z M311.362,386.176c-40.394-0.549-72.956-32.648-73.718-72.677
								c-0.773-41.03,32.222-74.315,73.927-74.554c42.014-0.235,74.747,32.018,74.611,73.532
								C386.054,353.857,352.689,386.73,311.362,386.176z"/>
						</g>
						<g>
							<path fill="#383938" d="M311.571,238.945c-41.705,0.238-74.7,33.523-73.927,74.554c0.762,40.028,33.324,72.128,73.718,72.677
								c41.327,0.555,74.691-32.318,74.82-73.698C386.318,270.963,353.585,238.71,311.571,238.945z"/>
						</g>
					</g>
					<g>
						<g>
							<path fill="#434343" d="M867.656,762.894c-55.448,26.506-96.404,76.098-115.968,133.95
								c-9.116,26.959-11.911,55.49-9.531,83.782c2.393,28.336,6.981,55.563,19.197,80.386c3.827,7.771,8.394,15.313,13.885,22.575
								c14.098,18.64,27.975,37.548,45.978,52.737c20.703,17.471,44.727,30.677,70.5,38.979
								c109.5,35.241,210.158-5.661,271.875-109.269c1.507-2.531,2.92-5.131,4.279-7.764c26.264-50.842,25.045-119.33,5.901-171.336
								c-20.605-55.982-62.604-98.59-113.325-122.75c-0.049-0.023-0.093-0.048-0.142-0.068
								C1001.217,736.008,930.318,732.934,867.656,762.894z M963.341,1038.154c-40.394-0.548-72.956-32.648-73.718-72.676
								c-0.773-41.031,32.223-74.318,73.928-74.557c42.013-0.233,74.747,32.018,74.611,73.533
								C1038.033,1005.836,1004.668,1038.71,963.341,1038.154z"/>
						</g>
						<g>
							<path fill="#383938" d="M963.551,890.922c-41.705,0.238-74.701,33.525-73.928,74.557
								c0.762,40.027,33.324,72.128,73.718,72.676c41.327,0.556,74.692-32.318,74.821-73.699
								C1038.298,922.939,1005.563,890.688,963.551,890.922z"/>
						</g>
					</g>
					<g>
						<g>
							<path fill="#313131" d="M625.288,1157.35c0,66-54,120-120,120H120c-66,0-120-54-120-120V772.061c0-66,54-120,120-120h385.288
								c66,0,120,54,120,120V1157.35z"/>
						</g>
						<g>
							<path fill="#373737" d="M0,1277.35V772.062c0-66,54-120,120-120h505.288"/>
						</g>
					</g>
				</g>
				<g>
					<g>
						<path fill="#313131" d="M1276.529,505.207c0,66-54,120-120,120H771.242c-66,0-120-54-120-120V119.919c0-66,54-120,120-120
							h385.287c66,0,120,54,120,120V505.207z"/>
					</g>
					<g>
						<path fill="#373737" d="M651.242,625.207V119.921c0-66,54-120,120-120h505.287"/>
					</g>
				</g>
			</g>
		</g>
		<g>
			<defs>
				<path id="SVGID_5_" d="M625.288,505.286c0,66-54,120-120,120H120c-66,0-120-54-120-120V120C0,54,54,0,120,0h385.288
					c66,0,120,54,120,120V505.286z M1277.267,120c0-66-54-120-120-120H771.979c-66,0-120,54-120,120v385.286c0,66,54,120,120,120
					h385.287c66,0,120-54,120-120V120z M625.288,771.979c0-66-54-120-120-120H120c-66,0-120,54-120,120v385.289c0,66,54,120,120,120
					h385.288c66,0,120-54,120-120V771.979z M1277.267,771.98c0-66-54-120-120-120H771.979c-66,0-120,54-120,120v385.287
					c0,66,54,120,120,120h385.287c66,0,120-54,120-120V771.98z"/>
			</defs>
			<clipPath id="SVGID_6_">
				<use xlink:href="#SVGID_5_"  overflow="visible"/>
			</clipPath>
		</g>
	</g>
	<g>
		<path fill="#1C1C1C" d="M148.627,1458.756h70.919v89.518c-26.009,11.292-51.816,16.936-77.421,16.936
			c-34.982,0-62.931-10.206-83.848-30.62c-20.919-20.414-31.377-45.591-31.377-75.531c0-31.552,10.835-57.813,32.511-78.782
			c21.673-20.966,48.842-31.452,81.504-31.452c11.894,0,23.185,1.285,33.872,3.856c10.685,2.57,24.194,7.284,40.525,14.139v30.847
			c-25.203-14.615-50.203-21.926-75.002-21.926c-23.086,0-42.542,7.863-58.368,23.59c-15.828,15.726-23.74,35.031-23.74,57.914
			c0,23.993,7.913,43.602,23.74,58.822c15.826,15.223,36.189,22.833,61.09,22.833c12.097,0,26.562-2.771,43.398-8.316l2.873-0.907
			v-44.004h-40.676V1458.756z"/>
		<path fill="#1C1C1C" d="M289.407,1423.674v31.906l1.512-2.42c13.307-21.472,26.613-32.208,39.92-32.208
			c10.382,0,21.22,5.243,32.511,15.727l-14.516,24.193c-9.579-9.072-18.448-13.608-26.614-13.608
			c-8.872,0-16.558,4.233-23.06,12.701c-6.502,8.468-9.753,18.5-9.753,30.092v72.733h-27.672v-139.116H289.407z"/>
		<path fill="#1C1C1C" d="M396.769,1365.154c4.536,0,8.416,1.564,11.643,4.688c3.225,3.126,4.839,6.956,4.839,11.492
			c0,4.438-1.614,8.268-4.839,11.492c-3.228,3.228-7.107,4.839-11.643,4.839c-4.234,0-7.965-1.637-11.19-4.914
			c-3.228-3.274-4.839-7.081-4.839-11.417c0-4.233,1.611-7.988,4.839-11.265C388.804,1366.794,392.534,1365.154,396.769,1365.154z
			 M383.159,1423.674h27.521v139.116h-27.521V1423.674z"/>
		<path fill="#1C1C1C" d="M543.293,1351.545h27.672v211.245h-58.822c-20.565,0-36.971-6.502-49.22-19.507
			c-12.248-13.004-18.372-30.443-18.372-52.319c0-20.464,6.426-37.298,19.279-50.505c12.854-13.205,29.26-19.81,49.22-19.81
			c9.273,0,19.355,1.966,30.242,5.897V1351.545z M543.293,1539.201v-88.157c-8.569-4.334-17.238-6.503-26.008-6.503
			c-13.711,0-24.624,4.487-32.738,13.458c-8.116,8.974-12.172,21.071-12.172,36.291c0,14.316,3.527,25.354,10.584,33.116
			c4.234,4.638,8.719,7.764,13.458,9.375c4.737,1.614,13.255,2.42,25.555,2.42H543.293z"/>
		<path fill="#313131" d="M664.415,1474.281l-22.984-13.964c-14.417-8.804-24.674-17.463-30.772-25.982
			c-6.1-8.518-9.148-18.321-9.148-29.411c0-16.634,5.77-30.142,17.314-40.525c11.542-10.382,26.538-15.575,44.986-15.575
			c17.64,0,33.82,4.952,48.54,14.857v34.325c-15.223-14.642-31.604-21.964-49.144-21.964c-9.881,0-17.995,2.284-24.345,6.854
			c-6.351,4.569-9.527,10.417-9.527,17.545c0,6.327,2.339,12.253,7.018,17.774c4.678,5.524,12.201,11.322,22.568,17.396
			l23.098,13.669c25.766,15.391,38.649,34.979,38.649,58.77c0,16.936-5.67,30.696-17.012,41.281
			c-11.34,10.585-26.083,15.877-44.229,15.877c-20.868,0-39.871-6.412-57.007-19.241v-38.408
			c16.331,20.692,35.232,31.036,56.705,31.036c9.475,0,17.364-2.637,23.665-7.91c6.299-5.273,9.451-11.877,9.451-19.813
			C692.238,1498.014,682.962,1485.817,664.415,1474.281z"/>
		<path fill="#313131" d="M815.869,1423.674h52.078v210.035h-27.52v-73.338c-12.018,3.225-22.162,4.838-30.441,4.838
			c-19.79,0-36.145-6.653-49.068-19.96s-19.385-30.19-19.385-50.656c0-21.673,6.711-38.911,20.136-51.715
			C775.092,1430.077,793.158,1423.674,815.869,1423.674z M840.428,1536.479v-87.099H823c-11.922,0-19.877,0.529-23.868,1.586
			c-3.991,1.059-7.45,2.516-10.38,4.378c-2.93,1.861-5.605,4.151-8.03,6.868c-7.577,8.556-11.364,19.124-11.364,31.703
			c0,14.192,4.267,25.793,12.803,34.8c8.537,9.007,19.573,13.51,33.111,13.51c3.133,0,5.709-0.195,7.729-0.588
			s6.465-1.72,13.335-3.979l2.122-0.591L840.428,1536.479z"/>
		<path fill="#313131" d="M993.605,1562.79v-17.843c-5.848,6.397-12.526,11.376-20.035,14.93
			c-7.511,3.554-14.996,5.332-22.455,5.332c-8.771,0-16.86-2.192-24.27-6.577c-7.41-4.386-13.004-10.332-16.785-17.844
			c-3.779-7.508-5.67-19.983-5.67-37.425v-79.689h27.521v79.285c0,14.6,2.091,24.795,6.275,30.583
			c4.183,5.789,11.516,8.683,22.001,8.683c13.104,0,24.244-6.4,33.418-19.203v-99.348h27.521v139.116H993.605z"/>
		<path fill="#313131" d="M1074.052,1365.154c4.536,0,8.415,1.564,11.644,4.688c3.225,3.126,4.838,6.956,4.838,11.492
			c0,4.438-1.613,8.268-4.838,11.492c-3.229,3.228-7.107,4.839-11.644,4.839c-4.234,0-7.965-1.637-11.19-4.914
			c-3.227-3.274-4.838-7.081-4.838-11.417c0-4.233,1.611-7.988,4.838-11.265C1066.087,1366.794,1069.817,1365.154,1074.052,1365.154
			z M1060.442,1423.674h27.521v139.116h-27.521V1423.674z"/>
		<path fill="#313131" d="M1220.576,1351.545h27.673v211.245h-58.822c-20.565,0-36.972-6.502-49.22-19.507
			c-12.248-13.004-18.372-30.443-18.372-52.319c0-20.464,6.427-37.298,19.279-50.505c12.854-13.205,29.26-19.81,49.22-19.81
			c9.273,0,19.355,1.966,30.242,5.897V1351.545z M1220.576,1539.201v-88.157c-8.568-4.334-17.238-6.503-26.008-6.503
			c-13.711,0-24.624,4.487-32.738,13.458c-8.115,8.974-12.172,21.071-12.172,36.291c0,14.316,3.527,25.354,10.584,33.116
			c4.234,4.638,8.719,7.764,13.459,9.375c4.736,1.614,13.254,2.42,25.555,2.42H1220.576z"/>
	</g>
</g>
</svg>
