<?xml version="1.0" encoding="utf-8"?>
<!-- Generator: Adobe Illustrator 16.0.0, SVG Export Plug-In . SVG Version: 6.00 Build 0)  -->
<!DOCTYPE svg PUBLIC "-//W3C//DTD SVG 1.1//EN" "http://www.w3.org/Graphics/SVG/1.1/DTD/svg11.dtd">
<svg version="1.1" id="Layer_1" xmlns="http://www.w3.org/2000/svg" xmlns:xlink="http://www.w3.org/1999/xlink" x="0px" y="0px"
	 width="1107.771px" height="1107.772px" viewBox="0 0 1107.771 1107.772" enable-background="new 0 0 1107.771 1107.772"
	 xml:space="preserve">
<g>
	<g>
		<path fill="none" stroke="#FFFFFF" stroke-width="10" stroke-miterlimit="10" d="M517.115,367.115c0,82.5-67.5,150-150,150H155
			c-82.5,0-150-67.5-150-150V155C5,72.5,72.5,5,155,5h212.115c82.5,0,150,67.5,150,150V367.115z"/>
	</g>
	<g>
		<path fill="none" stroke="#FFFFFF" stroke-width="10" stroke-miterlimit="10" d="M1102.771,952.772c0,82.5-67.5,150-150,150
			H740.656c-82.5,0-150-67.5-150-150V740.657c0-82.5,67.5-150,150-150h212.115c82.5,0,150,67.5,150,150V952.772z"/>
	</g>
	<g>
		<path fill="none" stroke="#FFFFFF" stroke-width="10" stroke-miterlimit="10" d="M1102.771,367.115c0,82.5-67.5,150-150,150
			H740.656c-82.5,0-150-67.5-150-150V155c0-82.5,67.5-150,150-150h212.115c82.5,0,150,67.5,150,150V367.115z"/>
	</g>
	<g>
		<path fill="none" stroke="#FFFFFF" stroke-width="10" stroke-miterlimit="10" d="M517.115,952.772c0,82.5-67.5,150-150,150H155
			c-82.5,0-150-67.5-150-150V740.657c0-82.5,67.5-150,150-150h212.115c82.5,0,150,67.5,150,150V952.772z"/>
	</g>
</g>
</svg>
