<?xml version="1.0" encoding="utf-8"?>
<!-- Generator: Adobe Illustrator 16.0.0, SVG Export Plug-In . SVG Version: 6.00 Build 0)  -->
<!DOCTYPE svg PUBLIC "-//W3C//DTD SVG 1.1//EN" "http://www.w3.org/Graphics/SVG/1.1/DTD/svg11.dtd">
<svg version="1.1" id="Layer_1" xmlns="http://www.w3.org/2000/svg" xmlns:xlink="http://www.w3.org/1999/xlink" x="0px" y="0px"
	 width="41.872px" height="41.872px" viewBox="0 0 41.872 41.872" enable-background="new 0 0 41.872 41.872" xml:space="preserve">
<g>
	<circle fill="#313131" stroke="#919191" stroke-width="2" stroke-miterlimit="10" cx="20.936" cy="20.936" r="19.936"/>
	<g>
		<path fill="#919191" d="M32.844,13.188c-0.381,1.398-1.66,2.393-3.176,2.44c-0.754,0.024-1.508,0.008-2.263,0.009
			c-0.003,0.003-0.007,0.005-0.01,0.008c0.009,0.766,0.019,1.531,0.025,2.296c0.005,0.501,0.005,1.002,0.007,1.503
			c-0.047,0.247-0.23,0.155-0.366,0.132c-0.581-0.099-1.143-0.068-1.685,0.191c-0.527,0.255-0.93,0.631-1.201,1.151
			c-0.075,0.143-0.116,0.31-0.254,0.415c-0.008,0.001-0.015,0.001-0.021,0.001c0.058,0.084,0.026,0.185,0.01,0.282
			c-0.098,0.585-0.021,1.146,0.235,1.68c0.511,1.058,1.735,1.646,2.885,1.392c0.14-0.031,0.305-0.134,0.39,0.089
			c-0.003,0.718-0.004,1.437-0.007,2.154c0.004,0.009,0.008,0.016,0.013,0.024c0.002,1.216,0.005,2.432,0.004,3.646
			c-0.001,0.269,0.02,0.53,0.184,0.753c0.254,0.34,0.592,0.505,1.018,0.429c0.423-0.073,0.721-0.322,0.815-0.741
			c0.053-0.233,0.149-0.284,0.367-0.278c0.493,0.014,0.986,0.01,1.479-0.004c0.209-0.007,0.281,0.039,0.254,0.267
			c-0.104,0.916-0.615,1.762-1.361,2.287c-0.319,0.227-0.683,0.392-1.074,0.48c-0.732,0.163-1.524,0.044-2.175-0.322
			c-1.025-0.579-1.599-1.691-1.578-2.859c0.01-0.598,0.013-1.196,0.014-1.795c-0.014,0-0.028-0.001-0.042-0.001
			c-0.222-0.015-0.444-0.017-0.666-0.015c-0.157,0.001-0.314,0.004-0.471,0.008c-0.005,1.904-0.014,3.809-0.018,5.712
			c0,0.219-0.003,0.438,0.067,0.648c0.118,0.361,0.426,0.592,0.798,0.597c0.36,0.004,0.657-0.199,0.801-0.548
			c0.181-0.439,0.18-0.441,0.645-0.446c0.459-0.005,0.919-0.016,1.378,0c0.116,0.004,0.259,0.01,0.339,0.101
			c0.092,0.102,0.14,0.298,0.089,0.416c-0.452,1.071-0.834,1.604-1.525,2.189c-0.536,0.455-1.287,0.58-2.028,0.525
			c-0.581-0.044-1.146-0.252-1.606-0.606c-0.73-0.563-1.128-1.442-1.156-2.357c-0.063-2.074-0.027-4.151-0.004-6.229
			c-0.156-0.002-0.313-0.004-0.471-0.005c-0.18,0-0.362,0.023-0.544-0.013c0,0,0-0.001-0.001-0.003
			c-0.049,0.055-0.34,0.007-0.412,0.007c-0.218,0.001-0.438,0.004-0.657,0.006c0.001,0.416,0.002,0.832,0.001,1.247
			c-0.001,1.586,0.001,3.17-0.017,4.756c-0.018,1.789-1.206,3.09-2.937,3.23c-0.927,0.075-1.81-0.341-2.444-0.996
			c-0.265-0.273-1.599-2.18-0.641-2.22c0.573-0.023,1.148-0.021,1.722-0.009c0.202,0.004,0.298,0.114,0.36,0.302
			c0.171,0.503,0.505,0.73,0.939,0.669c0.449-0.064,0.734-0.395,0.762-0.927c0.028-0.539,0.016-1.08,0.017-1.619
			c0.004-1.479,0.009-2.957,0.015-4.435c-0.203-0.006-0.404-0.01-0.608-0.011c-0.188,0.003-0.377,0.011-0.565,0.028
			c0.001,0.649-0.001,1.299-0.019,1.947c-0.029,1.115-0.578,2.188-1.57,2.744c-1.025,0.574-2.349,0.498-3.311-0.159
			c-0.482-0.329-0.866-0.797-1.1-1.332c-0.136-0.312-0.483-1.104,0.091-1.179c0.122-0.016,0.25-0.01,0.373-0.01
			c0.379-0.001,0.757,0.003,1.137-0.006c0.155-0.004,0.232,0.025,0.278,0.206c0.144,0.574,0.603,0.885,1.138,0.81
			c0.525-0.072,0.891-0.505,0.897-1.094c0.017-1.25,0.021-2.5,0.031-3.75c0.002-0.004,0.004-0.008,0.006-0.011
			c-0.002-0.568-0.003-1.135-0.005-1.702c0-0.164-0.006-0.327-0.011-0.491c0.048-0.172,0.176-0.144,0.299-0.116
			c1.059,0.233,1.947-0.062,2.65-0.885c0.54-0.634,0.688-1.38,0.56-2.189c-0.018-0.107-0.065-0.212-0.031-0.324
			c-0.084-0.034-0.116-0.13-0.152-0.208c-0.543-1.192-1.808-1.734-2.99-1.47c-0.13,0.029-0.296,0.087-0.328-0.14
			c0.014-1.267,0.026-2.533,0.039-3.8c-0.001-0.001-0.003-0.002-0.004-0.003c-0.797,0.001-1.596,0.025-2.393-0.005
			c-1.357-0.052-2.524-0.937-2.98-2.215c-0.445-1.249-0.1-2.695,0.914-3.577c0.674-0.589,1.474-1.011,2.223-1.499
			c2.529-1.653,5.059-3.336,7.594-4.982c0.163-0.106,0.855-0.623,1.161-0.64c0.014-0.003,0.027-0.005,0.042-0.002
			c0.004,0.002,0.008,0.003,0.012,0.004c0.001,0,0.001,0.001,0.001,0.001c0.001,0,0.003,0,0.003,0.001
			c0.003,0.001,0.004,0.001,0.007,0.002c0.016,0.006,0.03,0.013,0.046,0.021c0.009,0.003,0.017,0.009,0.024,0.013
			c0.007,0.004,0.018,0.008,0.022,0.014c0.043,0.023,0.086,0.049,0.127,0.075c0.173,0.108,0.332,0.237,0.504,0.346
			c0.272,0.178,0.546,0.354,0.818,0.532c0.579,0.375,1.156,0.749,1.735,1.125c0.559,0.363,1.119,0.727,1.679,1.09
			c0.247,0.161,0.495,0.32,0.742,0.481c1.542,0.998,3.081,2.002,4.623,3.001C32.667,10.283,33.238,11.733,32.844,13.188z"/>
		<path fill="#FFFFFF" d="M29.51,25.335c-0.044,0.017-0.089,0.029-0.134,0.043c-0.259,0.072-0.525,0.107-0.791,0.142
			c-0.255,0.032-0.508,0.072-0.765,0.063c-2.776-0.114-4.943-2.818-4.032-5.814c0.327-1.077,1.171-2.026,2.153-2.554
			c0.553-0.298,1.164-0.438,1.786-0.466c1.471-0.065,2.821,0.37,3.766,1.556c0.407,0.512,0.69,1.117,0.841,1.753
			c0.291,1.23,0.09,2.672-0.721,3.684c-0.3,0.373-0.658,0.694-1.044,0.976C30.231,24.96,29.902,25.197,29.51,25.335z"/>
		<path fill="#FFFFFF" d="M12.435,17.008c1.057-0.379,2.25-0.375,3.329,0.121c1.053,0.483,2.082,1.503,2.371,2.658
			c0.584,2.327-0.266,4.324-2.308,5.377c-0.481,0.248-1.007,0.401-1.544,0.448c-0.468,0.042-0.93-0.027-1.391-0.09
			c-0.753-0.103-1.347-0.5-1.912-0.979c-0.431-0.363-0.793-0.804-1.042-1.312c-0.535-1.089-0.653-2.363-0.242-3.52
			C10.16,18.407,11.205,17.448,12.435,17.008z"/>
		<path fill="#919191" d="M29.063,20.093c0.589,0.588,0.588,1.516-0.004,2.091c-0.574,0.561-1.49,0.566-2.063,0.015
			c-0.588-0.565-0.598-1.504-0.02-2.095C27.556,19.51,28.473,19.505,29.063,20.093z"/>
		<path fill="#919191" d="M12.848,20.156c0.591-0.598,1.506-0.607,2.088-0.022c0.579,0.583,0.569,1.517-0.022,2.093
			c-0.579,0.563-1.489,0.572-2.063,0.021C12.263,21.682,12.263,20.748,12.848,20.156z"/>
	</g>
</g>
</svg>
