<?xml version="1.0" encoding="utf-8"?>
<!-- Generator: Adobe Illustrator 16.0.0, SVG Export Plug-In . SVG Version: 6.00 Build 0)  -->
<!DOCTYPE svg PUBLIC "-//W3C//DTD SVG 1.1//EN" "http://www.w3.org/Graphics/SVG/1.1/DTD/svg11.dtd">
<svg version="1.1" id="Layer_1" xmlns="http://www.w3.org/2000/svg" xmlns:xlink="http://www.w3.org/1999/xlink" x="0px" y="0px"
	 width="36.141px" height="36.141px" viewBox="0 0 36.141 36.141" enable-background="new 0 0 36.141 36.141" xml:space="preserve">
<g>
	<circle fill="#434343" cx="18.071" cy="18.07" r="17.571"/>
	<circle fill="none" stroke="#212121" stroke-miterlimit="10" cx="18.071" cy="18.07" r="17.571"/>
</g>
<g>
	<path fill="#333333" d="M12.871,11.605c0-1.1,0.779-1.55,1.732-1L25.8,17.07c0.953,0.55,0.953,1.45,0,2l-11.198,6.465
		c-0.953,0.55-1.732,0.1-1.732-1V11.605z"/>
	<path fill="none" stroke="#727172" stroke-width="1.5" stroke-miterlimit="10" d="M12.871,11.605c0-1.1,0.779-1.55,1.732-1
		L25.8,17.07c0.953,0.55,0.953,1.45,0,2l-11.198,6.465c-0.953,0.55-1.732,0.1-1.732-1V11.605z"/>
</g>
</svg>
