<?xml version="1.0" encoding="utf-8"?>
<!-- Generator: Adobe Illustrator 24.3.0, SVG Export Plug-In . SVG Version: 6.00 Build 0)  -->
<svg version="1.1" id="Layer_1" xmlns="http://www.w3.org/2000/svg" xmlns:xlink="http://www.w3.org/1999/xlink" x="0px" y="0px"
	 viewBox="0 0 343.74 343.74" style="enable-background:new 0 0 343.74 343.74;" xml:space="preserve">
<style type="text/css">
	.st0{fill:#FFFFFF;}
</style>
<g>
	<path class="st0" d="M211.91,128.81c0,11.31-0.22,22.62,0.05,33.92c0.34,14.37-5.42,25.89-16.52,34.38
		c-13.68,10.46-35.76,10.51-49.17-0.83c-7.42-6.27-12.58-13.5-14.56-23.03c-1.82-8.77-1.67-17.64-1.61-26.52
		c0.02-2.77,2.19-1.63,3.43-1.64c12.7-0.08,25.4-0.08,38.1-0.03c2.75,0.01,5.82,0.03,5.73-3.51c-0.09-3.29-2.91-4-5.94-3.99
		c-12.54,0.08-25.1-0.2-37.63,0.16c-4.4,0.12-3.67-2.24-3.71-4.82c-0.04-2.68-0.48-4.85,3.79-4.73c12.38,0.35,24.78,0.12,37.17,0.13
		c2.74,0,6.35,0.54,6.31-3.35c-0.04-3.89-3.5-4.13-6.72-4.11c-12.08,0.07-24.16-0.09-36.24,0.11c-3.28,0.05-4.57-0.49-4.43-4.17
		c0.13-3.25,0.55-4.46,4.24-4.38c12.54,0.28,25.09,0.07,37.63,0.14c2.62,0.01,5.48-0.09,5.54-3.25c0.05-3.25-2.57-4.26-5.68-4.25
		c-12.7,0.07-25.41-0.19-38.1,0.14c-4.61,0.12-3.37-2.64-3.49-5c-0.13-2.48-0.56-4.62,3.5-4.52c12.69,0.3,25.4,0.08,38.1,0.13
		c2.75,0.01,5.84,0.01,5.66-3.56c-0.16-3.24-2.96-3.95-6-3.93c-12.23,0.09-24.47,0.02-36.71,0.05c-2.54,0.01-3.85,0.51-2.96-3.58
		c3.85-17.66,15.09-28.42,31.91-31.4c21.88-3.87,41.79,8.05,47.37,31.11c2.06,8.5,0.61,17.16,0.9,25.75
		C212.08,116.41,211.91,122.62,211.91,128.81z"/>
	<path class="st0" d="M171.94,291.02c-12.7,0-25.4-0.1-38.1,0.07c-2.99,0.04-3.85-0.69-3.83-3.77c0.07-11.18-0.05-11.18,11.22-11.18
		c4.34,0,8.68-0.12,13.01,0.05c2.21,0.08,2.88-0.56,2.87-2.82c-0.1-13.32-0.22-26.64,0.08-39.96c0.07-3.12-2.09-3.29-3.53-3.6
		c-11.73-2.54-21.48-8.66-29.62-17.07c-11.29-11.67-18.52-25.45-19.05-42.12c-0.07-2.28-1.13-4.36-0.99-6.74
		c0.35-6.06,3.92-10.46,8.88-10.47c4.97-0.01,8.96,4.37,8.77,10.45c-0.23,7.25,0.81,14.19,3.83,20.73
		c7.69,16.64,20.32,26.99,38.62,30.22c17.55,3.1,32.19-2.82,44.33-14.91c8.38-8.34,13.21-18.77,13.86-30.97
		c0.17-3.12-0.18-6.2,0.06-9.22c0.35-4.4,5.07-8.09,8.9-7.83c4.8,0.32,8.41,4.43,8.51,10.4c0.24,13.37-2.77,26.07-9.71,37.51
		c-9.73,16.02-23.77,26.47-42.17,30.83c-1.82,0.43-3.03,1.25-3,3.69c0.16,13.01,0.12,26.02,0.02,39.03
		c-0.02,2.23,0.6,2.89,2.84,2.85c7.59-0.13,15.18,0.06,22.77-0.11c2.63-0.06,3.3,0.7,3.33,3.32c0.13,11.62,0.22,11.62-11.23,11.62
		C192.38,291.02,182.16,291.02,171.94,291.02z"/>
</g>
</svg>
