<?xml version="1.0" encoding="utf-8"?>
<!-- Generator: Adobe Illustrator 16.0.0, SVG Export Plug-In . SVG Version: 6.00 Build 0)  -->
<!DOCTYPE svg PUBLIC "-//W3C//DTD SVG 1.1//EN" "http://www.w3.org/Graphics/SVG/1.1/DTD/svg11.dtd">
<svg version="1.1" id="Layer_1" xmlns="http://www.w3.org/2000/svg" xmlns:xlink="http://www.w3.org/1999/xlink" x="0px" y="0px"
	 width="298.958px" height="360.934px" viewBox="0 0 298.958 360.934" enable-background="new 0 0 298.958 360.934"
	 xml:space="preserve">
<g>
	<path fill="#FFFFFF" d="M296.672,0l2.286,2.286c-1.524,15.24-2.286,41.827-2.286,79.755l-2.033,2.032h-11.938l-2.031-2.286
		l-2.795-23.369c-1.356-12.529-2.414-20.192-3.174-22.986c-0.764-2.794-1.994-4.826-3.683-6.096
		c-1.694-1.27-7.202-2.325-16.512-3.175c-9.313-0.845-19.728-1.27-31.242-1.27H175.26c-1.359,38.271-2.034,60.369-2.034,66.294
		v148.079l0.511,49.532c0.164,19.137,0.634,31.538,1.396,37.21c0.762,5.675,1.943,9.399,3.558,11.175
		c1.607,1.779,4.698,3.303,9.27,4.575c4.571,1.269,15.915,2.245,34.037,2.919l1.775,1.523v12.7l-1.775,2.034
		c-43.351-1.359-67.564-2.034-72.645-2.034c-5.422,0-29.552,0.675-72.39,2.034l-2.032-2.034v-12.7l2.032-1.523
		c15.915-0.674,26.455-1.523,31.623-2.54c5.163-1.017,8.636-2.327,10.415-3.937c1.777-1.607,3.257-5.037,4.445-10.286
		c1.182-5.247,1.776-16.932,1.776-35.052l0.51-53.597V91.186c0-2.707-0.681-24.805-2.033-66.294H85.853
		c-15.582,0-29.043,0.341-40.386,1.016c-11.347,0.679-17.908,2.413-19.686,5.207s-3.429,11.899-4.953,27.305l-2.54,23.369
		l-2.286,2.286H4.318l-2.032-2.032C1.945,41.235,1.183,14.648,0,2.286L2.286,0C31.75,1.357,80.771,2.031,149.352,2.031
		C219.283,2.031,268.391,1.357,296.672,0z"/>
</g>
</svg>
