<?xml version="1.0" encoding="utf-8"?>
<!-- Generator: Adobe Illustrator 16.0.0, SVG Export Plug-In . SVG Version: 6.00 Build 0)  -->
<!DOCTYPE svg PUBLIC "-//W3C//DTD SVG 1.1//EN" "http://www.w3.org/Graphics/SVG/1.1/DTD/svg11.dtd">
<svg version="1.1" id="Layer_1" xmlns="http://www.w3.org/2000/svg" xmlns:xlink="http://www.w3.org/1999/xlink" x="0px" y="0px"
	 width="359.95px" height="409.784px" viewBox="0 0 359.95 409.784" enable-background="new 0 0 359.95 409.784"
	 xml:space="preserve">
<g>
	<path fill-rule="evenodd" clip-rule="evenodd" d="M282.324,409.576c-3.168,0.411-6.539,0.085-9.687,0.085c-3.33,0-6.659,0-9.988,0
		c-6.653,0-13.306,0-19.958,0c-13.325,0-26.65,0-39.975,0c-13.273,0-26.546,0-39.819,0c-13.322,0-26.644,0-39.966,0
		c-13.161,0-26.322-0.024-39.483,0c-1.561,0.003-3.122,0.028-4.682-0.004c-3.186-0.063-7.137-1.581-10.09-2.711
		c-3.03-1.159-5.85-2.769-8.393-4.783c-5.129-4.063-9.404-9.493-11.702-15.647c-1.342-3.597-2.339-7.713-2.624-11.55
		c-1.902-25.645-4.171-51.262-6.305-76.889c-2.554-30.673-5.137-61.343-7.696-92.017c-2.349-28.149-4.728-56.296-6.949-84.455
		c-0.214-2.71-1.285-3.823-3.657-4.831C4.963,109.806-3.674,91.064,1.493,74.05c4.873-16.047,18.284-25.903,35.69-25.997
		c18.129-0.098,36.259-0.023,54.388-0.023c1.398,0,2.796,0,4.351,0c0-4.211-0.072-7.805,0.013-11.396
		c0.289-12.181,4.706-22.594,14.943-29.409c9.953-6.625,21.037-7.208,32.581-7.203c7.148,0.003,14.296,0,21.444,0.002
		c14.295,0.004,28.589-0.002,42.884,0.001c18.323,0.004,41.476-1.505,51.061,17.931c2.028,4.114,4.021,9.335,4.563,13.914
		c0.617,5.208,0.097,10.552,0.097,16.159c2.302,0,3.738,0,5.173,0c18.13,0.001,36.26-0.115,54.388,0.035
		c17.781,0.148,31.872,11.22,35.914,27.881c3.766,15.529-3.677,32.581-18.387,39.662c-4.775,2.299-6.129,5.063-6.097,9.575
		c0.001,0.266-0.035,0.532-0.057,0.798c-3.293,40.238-6.569,80.478-9.884,120.714c-3.423,41.564-6.939,83.122-10.289,124.691
		c-0.848,10.523-3.467,20.133-11.26,27.818c-2.595,2.559-5.663,4.75-8.938,6.342c-3.198,1.555-6.755,3.01-10.236,3.77
		C283.337,409.425,282.833,409.51,282.324,409.576z M48.991,120.206c1.612,19.824,3.16,39.213,4.772,58.596
		c2.806,33.73,5.676,67.453,8.472,101.184c2.531,30.543,4.952,61.096,7.522,91.635c0.881,10.479,4.94,14.039,15.399,14.039
		c63.19,0.002,126.38,0,189.57,0c1.2,0,2.404,0.041,3.599-0.039c6.019-0.412,10.431-4.465,11.317-10.465
		c0.331-2.238,0.502-4.502,0.688-6.758c1.713-20.717,3.402-41.437,5.119-62.152c2.289-27.621,4.595-55.241,6.896-82.861
		c2.025-24.3,4.062-48.6,6.073-72.901c0.83-10.032,1.609-20.066,2.426-30.277C223.414,120.206,136.41,120.206,48.991,120.206z
		 M179.934,96.035c46.801,0,93.602,0,140.403-0.004c1.6,0,3.213,0.077,4.795-0.102c8.24-0.928,13.166-9.533,9.616-16.916
		c-2.651-5.512-7.416-7.026-13.227-7.022c-94.402,0.059-188.805,0.041-283.207,0.045c-1.199,0-2.409-0.039-3.597,0.096
		c-6.146,0.694-10.779,5.842-10.775,11.91c0.004,6.067,4.641,11.221,10.791,11.889c1.584,0.172,3.197,0.1,4.796,0.101
		C86.331,96.035,133.132,96.035,179.934,96.035z M239.931,47.838c0-3.365,0.01-6.528-0.002-9.692
		c-0.034-9.58-4.592-14.107-14.265-14.114c-19.979-0.013-39.959-0.004-59.938-0.004c-11.055,0-22.111-0.056-33.166,0.025
		c-6.597,0.048-11.725,4.057-12.389,10.144c-0.484,4.436-0.095,8.966-0.095,13.641C159.967,47.838,199.619,47.838,239.931,47.838z"
		/>
	<path fill-rule="evenodd" clip-rule="evenodd" fill="#FFFFFF" d="M48.991,120.206c87.419,0,174.423,0,261.853,0
		c-0.816,10.211-1.596,20.245-2.426,30.277c-2.012,24.301-4.048,48.601-6.073,72.901c-2.301,27.62-4.606,55.24-6.896,82.861
		c-1.717,20.716-3.406,41.436-5.119,62.152c-0.187,2.256-0.357,4.52-0.688,6.758c-0.887,6-5.299,10.053-11.317,10.465
		c-1.194,0.08-2.398,0.039-3.599,0.039c-63.19,0-126.38,0.002-189.57,0c-10.458,0-14.518-3.561-15.399-14.039
		c-2.57-30.539-4.991-61.092-7.522-91.635c-2.796-33.73-5.667-67.453-8.472-101.184C52.15,159.419,50.603,140.03,48.991,120.206z
		 M131.854,347.44c-0.458-6.778-0.95-13.554-1.37-20.333c-3.521-56.899-7.032-113.8-10.54-170.699
		c-0.458-7.43-5.636-12.578-12.451-12.334c-6.847,0.245-11.748,5.725-11.509,13.183c0.188,5.855,0.675,11.702,1.04,17.551
		c2.03,32.57,4.066,65.14,6.094,97.709c1.614,25.924,3.179,51.85,4.858,77.768c0.33,5.092,3.03,8.758,7.873,10.57
		C124.421,364.061,132.221,357.489,131.854,347.44z M263.806,158.935c0.033,0,0.065,0.001,0.098,0.002
		c0-0.799,0.007-1.598-0.001-2.397c-0.074-6.935-4.902-12.181-11.465-12.462c-6.549-0.281-12.019,4.585-12.463,11.449
		c-1.669,25.786-3.23,51.58-4.836,77.37c-1.499,24.063-3.007,48.125-4.506,72.187c-0.887,14.226-1.826,28.447-2.62,42.676
		c-0.354,6.336,2.383,10.92,7.336,12.953c8.022,3.295,16.055-2.307,16.615-11.537c1.38-22.734,2.771-45.47,4.19-68.202
		C258.692,240.292,261.254,199.614,263.806,158.935z M191.927,252.847c0-31.2,0.001-62.399-0.001-93.6
		c-0.001-9.595-4.42-15.179-12.001-15.178c-7.583,0-11.999,5.581-12,15.179c-0.001,62.4-0.001,124.801,0.001,187.201
		c0,1.332-0.077,2.676,0.068,3.996c0.561,5.086,3.155,8.711,8.029,10.455c8.172,2.924,15.87-3.063,15.883-12.455
		C191.954,316.582,191.925,284.714,191.927,252.847z"/>
	<path fill-rule="evenodd" clip-rule="evenodd" fill="#FFFFFF" d="M179.934,96.035c-46.802,0-93.603,0-140.404-0.003
		c-1.599,0-3.212,0.071-4.796-0.101c-6.15-0.668-10.787-5.822-10.791-11.889c-0.004-6.067,4.63-11.215,10.775-11.91
		c1.188-0.135,2.397-0.096,3.597-0.096c94.402-0.004,188.805,0.014,283.207-0.045c5.811-0.004,10.575,1.51,13.227,7.022
		c3.55,7.382-1.376,15.987-9.616,16.916c-1.582,0.179-3.195,0.102-4.795,0.102C273.536,96.035,226.734,96.035,179.934,96.035z"/>
	<path fill-rule="evenodd" clip-rule="evenodd" fill="#FFFFFF" d="M239.931,47.838c-40.312,0-79.963,0-119.854,0
		c0-4.675-0.389-9.206,0.095-13.641c0.664-6.087,5.792-10.096,12.389-10.144c11.055-0.081,22.11-0.024,33.166-0.025
		c19.979,0,39.958-0.009,59.938,0.004c9.673,0.007,14.231,4.535,14.265,14.114C239.94,41.31,239.931,44.474,239.931,47.838z"/>
	<path fill-rule="evenodd" clip-rule="evenodd" d="M131.854,347.44c0.368,10.049-7.432,16.621-16.004,13.414
		c-4.843-1.813-7.542-5.479-7.873-10.57c-1.679-25.918-3.244-51.844-4.858-77.768c-2.028-32.569-4.064-65.139-6.094-97.709
		c-0.365-5.849-0.852-11.696-1.04-17.551c-0.239-7.458,4.663-12.938,11.509-13.183c6.815-0.243,11.994,4.904,12.451,12.334
		c3.508,56.899,7.018,113.8,10.54,170.699C130.904,333.886,131.396,340.662,131.854,347.44z"/>
	<path fill-rule="evenodd" clip-rule="evenodd" d="M263.806,158.935c-2.552,40.679-5.114,81.357-7.652,122.037
		c-1.418,22.732-2.81,45.468-4.19,68.202c-0.561,9.23-8.593,14.832-16.615,11.537c-4.953-2.033-7.689-6.617-7.336-12.953
		c0.794-14.229,1.733-28.45,2.62-42.676c1.5-24.062,3.007-48.124,4.506-72.187c1.606-25.79,3.167-51.584,4.836-77.37
		c0.444-6.863,5.914-11.73,12.463-11.449c6.563,0.281,11.391,5.528,11.465,12.462c0.008,0.8,0.001,1.598,0.001,2.397
		C263.872,158.936,263.839,158.935,263.806,158.935z"/>
	<path fill-rule="evenodd" clip-rule="evenodd" d="M191.926,252.847c-0.001,31.867,0.028,63.734-0.019,95.599
		c-0.013,9.393-7.711,15.379-15.883,12.455c-4.874-1.744-7.468-5.369-8.029-10.455c-0.145-1.32-0.068-2.664-0.068-3.996
		c-0.002-62.4-0.003-124.801-0.001-187.201c0-9.599,4.417-15.179,12-15.179c7.581-0.001,12,5.583,12.001,15.178
		C191.928,190.448,191.927,221.647,191.926,252.847z"/>
</g>
</svg>
